<?xml version="1.0" encoding="UTF-8"?>
<svg width="128" height="128" viewBox="0 0 128 128" xmlns="http://www.w3.org/2000/svg">
  <!-- Background circle -->
  <circle cx="64" cy="64" r="60" fill="#2196F3" />
  
  <!-- Speedometer track -->
  <path d="M 64 64 L 64 24" stroke="white" stroke-width="8" stroke-linecap="round" />
  
  <!-- Dial marks -->
  <g stroke="rgba(255,255,255,0.7)" stroke-width="4">
    <path d="M 64 34 L 64 24" transform="rotate(0 64 64)" />
    <path d="M 64 34 L 64 24" transform="rotate(30 64 64)" />
    <path d="M 64 34 L 64 24" transform="rotate(60 64 64)" />
    <path d="M 64 34 L 64 24" transform="rotate(90 64 64)" />
    <path d="M 64 34 L 64 24" transform="rotate(120 64 64)" />
    <path d="M 64 34 L 64 24" transform="rotate(150 64 64)" />
    <path d="M 64 34 L 64 24" transform="rotate(180 64 64)" />
  </g>
  
  <!-- Center point -->
  <circle cx="64" cy="64" r="6" fill="white" />
  
  <!-- Performance text -->
  <text x="64" y="88" 
        font-family="Arial, sans-serif" 
        font-size="14" 
        fill="white" 
        text-anchor="middle" 
        font-weight="bold">PERF</text>
</svg> 